<svg xmlns="http://www.w3.org/2000/svg" viewBox="0 0 24 24" role="img">
  <title>LinkedIn</title>
  <path d="M20.447 20.452h-3.554v-5.568c0-1.327-.024-3.036-1.852-3.036-1.853 0-2.136 1.447-2.136 
    2.941v5.663H9.349V9h3.414v1.561h.049c.476-.9 1.637-1.852 3.368-1.852 3.6 0 4.267 
    2.371 4.267 5.462v6.281zM5.337 7.433c-1.144 0-2.068-.928-2.068-2.074 
    0-1.146.932-2.074 2.068-2.074 1.146 0 2.074.928 2.074 2.074 0 1.146-.928 2.074-2.074 
    2.074zm1.777 13.019H3.56V9h3.554v11.452zM22.225 0H1.771C.792 
    0 0 .771 0 1.723v20.549C0 23.229.792 24 1.771 24h20.451C23.2 
    24 24 23.229 24 22.271V1.723C24 .771 23.2 0 22.225 0z"/>
</svg>